<svg id="visual" viewBox="0 0 900 450" width="900" height="450" xmlns="http://www.w3.org/2000/svg" xmlns:xlink="http://www.w3.org/1999/xlink" version="1.1"><rect x="0" y="0" width="900" height="450" fill="#FFFFFF"></rect><defs><linearGradient id="grad1_0" x1="50%" y1="100%" x2="100%" y2="0%"><stop offset="10%" stop-color="#feb858" stop-opacity="1"></stop><stop offset="90%" stop-color="#feb858" stop-opacity="1"></stop></linearGradient></defs><defs><linearGradient id="grad1_1" x1="50%" y1="100%" x2="100%" y2="0%"><stop offset="10%" stop-color="#feb858" stop-opacity="1"></stop><stop offset="90%" stop-color="#ffcf90" stop-opacity="1"></stop></linearGradient></defs><defs><linearGradient id="grad1_2" x1="50%" y1="100%" x2="100%" y2="0%"><stop offset="10%" stop-color="#ffe7c7" stop-opacity="1"></stop><stop offset="90%" stop-color="#ffcf90" stop-opacity="1"></stop></linearGradient></defs><defs><linearGradient id="grad1_3" x1="50%" y1="100%" x2="100%" y2="0%"><stop offset="10%" stop-color="#ffe7c7" stop-opacity="1"></stop><stop offset="90%" stop-color="#ffffff" stop-opacity="1"></stop></linearGradient></defs><defs><linearGradient id="grad2_0" x1="0%" y1="100%" x2="50%" y2="0%"><stop offset="10%" stop-color="#feb858" stop-opacity="1"></stop><stop offset="90%" stop-color="#feb858" stop-opacity="1"></stop></linearGradient></defs><defs><linearGradient id="grad2_1" x1="0%" y1="100%" x2="50%" y2="0%"><stop offset="10%" stop-color="#ffcf90" stop-opacity="1"></stop><stop offset="90%" stop-color="#feb858" stop-opacity="1"></stop></linearGradient></defs><defs><linearGradient id="grad2_2" x1="0%" y1="100%" x2="50%" y2="0%"><stop offset="10%" stop-color="#ffcf90" stop-opacity="1"></stop><stop offset="90%" stop-color="#ffe7c7" stop-opacity="1"></stop></linearGradient></defs><defs><linearGradient id="grad2_3" x1="0%" y1="100%" x2="50%" y2="0%"><stop offset="10%" stop-color="#ffffff" stop-opacity="1"></stop><stop offset="90%" stop-color="#ffe7c7" stop-opacity="1"></stop></linearGradient></defs><g transform="translate(900, 450)"><path d="M-225 0C-213.3 -21.9 -201.6 -43.8 -190.2 -61.8C-178.8 -79.8 -167.7 -93.9 -160.2 -116.4C-152.7 -138.9 -148.8 -169.7 -132.3 -182C-115.7 -194.3 -86.6 -188 -62.4 -192.1C-38.3 -196.2 -19.1 -210.6 0 -225L0 0Z" fill="#fff3e3"></path><path d="M-168.7 0C-160 -16.4 -151.2 -32.9 -142.7 -46.4C-134.1 -59.9 -125.8 -70.4 -120.1 -87.3C-114.5 -104.1 -111.6 -127.3 -99.2 -136.5C-86.8 -145.7 -64.9 -141 -46.8 -144.1C-28.7 -147.1 -14.4 -157.9 0 -168.7L0 0Z" fill="#ffdbac"></path><path d="M-112.5 0C-106.7 -11 -100.8 -21.9 -95.1 -30.9C-89.4 -39.9 -83.8 -46.9 -80.1 -58.2C-76.3 -69.4 -74.4 -84.9 -66.1 -91C-57.9 -97.2 -43.3 -94 -31.2 -96.1C-19.1 -98.1 -9.6 -105.3 0 -112.5L0 0Z" fill="#ffc475"></path><path d="M-56.2 0C-53.3 -5.5 -50.4 -11 -47.6 -15.5C-44.7 -20 -41.9 -23.5 -40 -29.1C-38.2 -34.7 -37.2 -42.4 -33.1 -45.5C-28.9 -48.6 -21.6 -47 -15.6 -48C-9.6 -49 -4.8 -52.6 0 -56.2L0 0Z" fill="#feb858"></path></g><g transform="translate(0, 0)"><path d="M225 0C225.1 24.7 225.2 49.4 214 69.5C202.8 89.6 180.2 105.1 161 117C141.8 128.9 126 137.3 112.3 154.5C98.6 171.8 87 197.9 68.6 211.1C50.2 224.4 25.1 224.7 0 225L0 0Z" fill="#fff3e3"></path><path d="M168.8 0C168.8 18.5 168.9 37.1 160.5 52.1C152.1 67.2 135.1 78.8 120.7 87.7C106.3 96.7 94.5 102.9 84.2 115.9C73.9 128.8 65.2 148.4 51.5 158.4C37.7 168.3 18.8 168.5 0 168.8L0 0Z" fill="#ffdbac"></path><path d="M112.5 0C112.6 12.4 112.6 24.7 107 34.8C101.4 44.8 90.1 52.5 80.5 58.5C70.9 64.4 63 68.6 56.1 77.3C49.3 85.9 43.5 99 34.3 105.6C25.1 112.2 12.6 112.3 0 112.5L0 0Z" fill="#ffc475"></path><path d="M56.3 0C56.3 6.2 56.3 12.4 53.5 17.4C50.7 22.4 45 26.3 40.2 29.2C35.4 32.2 31.5 34.3 28.1 38.6C24.6 42.9 21.7 49.5 17.2 52.8C12.6 56.1 6.3 56.2 0 56.3L0 0Z" fill="#feb858"></path></g></svg>