<svg id="visual" viewBox="0 0 960 540" width="960" height="540" xmlns="http://www.w3.org/2000/svg" xmlns:xlink="http://www.w3.org/1999/xlink" version="1.1"><rect x="0" y="0" width="960" height="540" fill="#FFFFFF"></rect><defs><linearGradient id="grad1_0" x1="43.8%" y1="100%" x2="100%" y2="0%"><stop offset="14.444444444444446%" stop-color="#feb858" stop-opacity="1"></stop><stop offset="85.55555555555554%" stop-color="#feb858" stop-opacity="1"></stop></linearGradient></defs><defs><linearGradient id="grad1_1" x1="43.8%" y1="100%" x2="100%" y2="0%"><stop offset="14.444444444444446%" stop-color="#feb858" stop-opacity="1"></stop><stop offset="85.55555555555554%" stop-color="#ffdbac" stop-opacity="1"></stop></linearGradient></defs><defs><linearGradient id="grad1_2" x1="43.8%" y1="100%" x2="100%" y2="0%"><stop offset="14.444444444444446%" stop-color="#ffffff" stop-opacity="1"></stop><stop offset="85.55555555555554%" stop-color="#ffdbac" stop-opacity="1"></stop></linearGradient></defs><defs><linearGradient id="grad2_0" x1="0%" y1="100%" x2="56.3%" y2="0%"><stop offset="14.444444444444446%" stop-color="#feb858" stop-opacity="1"></stop><stop offset="85.55555555555554%" stop-color="#feb858" stop-opacity="1"></stop></linearGradient></defs><defs><linearGradient id="grad2_1" x1="0%" y1="100%" x2="56.3%" y2="0%"><stop offset="14.444444444444446%" stop-color="#ffdbac" stop-opacity="1"></stop><stop offset="85.55555555555554%" stop-color="#feb858" stop-opacity="1"></stop></linearGradient></defs><defs><linearGradient id="grad2_2" x1="0%" y1="100%" x2="56.3%" y2="0%"><stop offset="14.444444444444446%" stop-color="#ffdbac" stop-opacity="1"></stop><stop offset="85.55555555555554%" stop-color="#ffffff" stop-opacity="1"></stop></linearGradient></defs><g transform="translate(960, 540)"><path d="M-324 0C-309.5 -30.8 -295 -61.7 -284.4 -92.4C-273.8 -123.1 -267.1 -153.7 -253.2 -184C-239.3 -214.3 -218.2 -244.3 -190.4 -262.1C-162.7 -280 -128.3 -285.6 -95.5 -293.9C-62.6 -302.2 -31.3 -313.1 0 -324L0 0Z" fill="#ffedd5"></path><path d="M-216 0C-206.3 -20.6 -196.6 -41.1 -189.6 -61.6C-182.5 -82.1 -178.1 -102.5 -168.8 -122.7C-159.6 -142.8 -145.5 -162.9 -127 -174.7C-108.5 -186.6 -85.6 -190.4 -63.7 -195.9C-41.8 -201.4 -20.9 -208.7 0 -216L0 0Z" fill="#ffc982"></path><path d="M-108 0C-103.2 -10.3 -98.3 -20.6 -94.8 -30.8C-91.3 -41 -89 -51.2 -84.4 -61.3C-79.8 -71.4 -72.7 -81.4 -63.5 -87.4C-54.2 -93.3 -42.8 -95.2 -31.8 -98C-20.9 -100.7 -10.4 -104.4 0 -108L0 0Z" fill="#feb858"></path></g><g transform="translate(0, 0)"><path d="M324 0C307.6 30.7 291.3 61.4 275.8 89.6C260.3 117.8 245.8 143.4 228.1 165.8C210.5 188.1 189.8 207.1 169.3 233C148.7 258.9 128.3 291.8 100.1 308.1C71.9 324.5 36 324.2 0 324L0 0Z" fill="#ffedd5"></path><path d="M216 0C205.1 20.5 194.2 41 183.9 59.7C173.6 78.5 163.8 95.6 152.1 110.5C140.3 125.4 126.6 138 112.9 155.3C99.2 172.6 85.5 194.5 66.7 205.4C48 216.3 24 216.2 0 216L0 0Z" fill="#ffc982"></path><path d="M108 0C102.5 10.2 97.1 20.5 91.9 29.9C86.8 39.3 81.9 47.8 76 55.3C70.2 62.7 63.3 69 56.4 77.7C49.6 86.3 42.8 97.3 33.4 102.7C24 108.2 12 108.1 0 108L0 0Z" fill="#feb858"></path></g></svg>